<?xml version="1.0" encoding="utf-8"?>
<!-- Generator: Adobe Illustrator 25.2.1, SVG Export Plug-In . SVG Version: 6.00 Build 0)  -->
<svg version="1.1" id="Layer_1" xmlns="http://www.w3.org/2000/svg" xmlns:xlink="http://www.w3.org/1999/xlink" x="0px" y="0px"
	 viewBox="0 0 1366 162.7" style="enable-background:new 0 0 1366 162.7;" xml:space="preserve">
<style type="text/css">
	.st0{opacity:0.5;fill:#F9F1F1;}
	.st1{fill:#F9F1F1;}
</style>
<path class="st0" d="M795.3,109.5c-32.6,11.2-65.1,21.4-97.2,29c-21.8,5.2-43.8,9.1-65.9,11.7c-23.7-2.8-47.3-6.9-70.6-12.2
	c-25.4-4-99.2-29-186.9-56.7c-56.2-17.7-118-36.5-176.5-51.5C254.2,14.6,310.5,3,374.7,3v0c89.9,0,164.3,22.5,244,46
	C676.4,66,736,89.3,795.3,109.5z"/>
<path class="st0" d="M374.7,81.3V168h-1366V3.6c125.2-18.3,497.4,125.5,561.6,135.5c92.5,21.1,188.7,22.6,281,1.4
	c1.4-0.3,2.7-0.6,4.1-0.9C-96.9,128.3-48.4,111.4,0,94c42.3-15.2,84.5-30.8,125.8-43.2c1.6-0.5,3.3-1,4.9-1.5
	c22.8-6.8,45.1-13.4,67.5-19.5C256.7,44.8,318.5,63.6,374.7,81.3z"/>
<path class="st0" d="M1740.7,3.6V167h-1366V81.3C462.4,109,536.2,134,561.6,138c23.3,5.4,46.9,9.4,70.6,12.2
	c22.1-2.7,44.1-6.6,65.9-11.7c32.1-7.6,64.6-17.8,97.2-29c24.9,8.5,49.8,16.4,74.5,23.1c8.1,2.2,16.2,4.2,24.2,6.1
	c93.6,22,191.3,20.8,285.1-0.5c8.2-1.3,21.3-4.7,38.2-9.6c35.9-10.5,89.1-27.9,148.6-46.5c33.4-10.5,68.9-21.3,104.4-31.5
	C1576.8,20.1,1684.1-4.6,1740.7,3.6z"/>
<path class="st0" d="M1291.7,6.6c-25.5,3.5-50,8.5-74.3,14.5c-31.8,7.8-63.2,17.2-95.4,26.8c-82.3,24.5-168.4,62-252.2,84.7
	c-24.7-6.7-49.6-14.6-74.5-23.1C855.1,89,915.2,65.2,973.4,47.9c79.7-23.7,154.1-46.4,244-46.4C1243.3,1.5,1267.9,3.4,1291.7,6.6z"
	/>
<path class="st0" d="M1217.4,21.1V167h-1366V2.1C-114-3-60.6,4.4,0,17.9c39.9,8.9,83,20.5,125.8,32.9
	c97.4,28.3,193.6,61.2,248.9,77.5c17,5,30.1,8.4,38.2,9.7c72,16.5,146.3,21,219.2,12.2c22.1-2.7,44.1-6.6,65.9-11.7
	c32.1-7.6,64.6-17.8,97.2-29c24.9,8.5,49.8,16.4,74.5,23.1c83.8-22.7,169.9-60.3,252.2-84.7C1154.2,38.3,1185.5,28.9,1217.4,21.1z"
	/>
<path class="st0" d="M2583.4,2.1V167h-1366V21.1c24.3-6,48.8-11,74.3-14.5c25.5,3.5,50.1,8.5,74.3,14.5
	c31.8,7.8,63.2,17.2,95.4,26.8c3,0.9,6,1.8,9.1,2.7c87.2,26.8,178.3,67,266.2,87.9c1.4,0.3,2.7,0.6,4.1,0.9
	c92.4,21.2,188.6,19.8,281-1.4C2086,128,2458.2-16.3,2583.4,2.1z"/>
<path class="st1" d="M1366,1.5V167H0V2.1c43.8-6.4,117.8,7,198.2,27.7c58.5,15,120.3,33.8,176.5,51.5C462.4,109,536.2,134,561.6,138
	c23.3,5.4,46.9,9.4,70.6,12.2c71.5,8.4,144.2,5,214.5-11.7c7.7-1.8,15.4-3.8,23.1-5.9c83.8-22.7,169.9-60.3,252.2-84.7
	c32.2-9.6,63.5-19,95.4-26.8c24.3-6,48.8-11,74.3-14.5C1315.5,3.4,1340.1,1.5,1366,1.5z"/>
</svg>
